<svg width="632" height="604" viewBox="0 0 632 604" fill="none" xmlns="http://www.w3.org/2000/svg">
<circle cx="316" cy="302" r="270" fill="#FA3556"/>
<path fill-rule="evenodd" clip-rule="evenodd" d="M178.059 207.908C180.311 207.246 181.601 204.884 180.94 202.631L180.548 201.296C178.331 193.747 180.007 187.006 185.484 180.016L185.491 180.007L192.706 170.891L192.714 170.881C203.69 156.929 209.568 140.458 203.914 121.206C196.581 96.2349 169.612 78.754 133.127 89.468C97.8722 99.8209 85.4506 130.667 93.1467 156.875C94.1621 160.333 95.5622 164.278 97.6853 167.635C98.6666 169.187 100.533 169.933 102.313 169.486L130.674 162.366C132.028 162.026 133.129 161.043 133.62 159.735C134.11 158.428 133.927 156.963 133.13 155.817C132.262 154.569 131.476 152.701 130.737 150.187C129.11 144.644 129.086 138.855 130.969 134.119C132.787 129.543 136.499 125.616 143.167 123.658C149.687 121.743 154.777 122.547 158.446 124.568C162.161 126.614 164.801 130.117 166.02 134.267C167.569 139.541 166.797 145.008 162.315 150.875L162.288 150.911L153.96 162.057L153.953 162.067C143.353 176.337 141.314 190.044 145.184 203.222C146.256 206.873 147.666 209.882 148.94 212.6L148.982 212.689C149.873 214.589 152.016 215.556 154.029 214.964L178.059 207.908ZM168.34 217.609C156.231 221.165 149.592 233.872 153.109 245.847C156.645 257.89 169.082 264.68 181.124 261.144C193.1 257.627 200.199 245.172 196.643 233.063C193.107 221.021 180.383 214.073 168.34 217.609Z" fill="#16191C"/>
<path d="M271.111 403.614L247.479 432.913M316.573 410.501L330.676 462.211M290.869 410.501L267.318 504.858" stroke="black" stroke-width="1.87187" stroke-linecap="round"/>
<path d="M142.586 271.901C133.616 281.947 117.919 355.919 111.192 391.649L191.92 409.588L243.049 357.563L264.576 285.804L267.716 204.179C229.743 222.567 151.556 261.855 142.586 271.901Z" fill="#F9F9F9"/>
<path d="M243.049 357.564L264.576 285.805L266.146 244.992C242.75 254.411 194.432 278.181 188.332 297.915C182.233 317.648 173.05 377.224 169.221 404.545L191.92 409.589L243.049 357.564Z" fill="#16191C"/>
<path d="M554.162 328.78C548.76 336.544 518.94 390.236 504.705 416.112L430.943 409.8L486.223 328.78L513.651 308.947C523.357 278.845 539.73 215.858 542.768 203.029C546.566 186.994 575.542 184.033 574.839 198.81C574.417 207.671 560.913 319.074 554.162 328.78Z" fill="#F9F9F9"/>
<path d="M431.548 352.88C423.95 367.095 405.152 395.672 390.741 396.26L435.959 403.245C446.865 394.422 471.619 373.688 483.383 361.336C495.147 348.983 501.029 332.906 502.5 326.411L431.548 352.88Z" fill="#16191C"/>
<path d="M107.441 307.227L382.659 367.652L537.91 305.463L241.963 269.738L107.441 307.227Z" fill="#F9F9F9"/>
<path d="M267.177 87.028L556.859 97.8069C559.586 97.9083 561.648 100.311 561.334 103.021L537.905 305.461L241.958 269.736L262.353 91.1733C262.631 88.7434 264.733 86.937 267.177 87.028Z" fill="#F9F9F9"/>
<path d="M278.883 101.26L540.55 111.063C543.29 111.166 545.356 113.592 545.019 116.314L523.732 288.425L255.517 258.629L274.062 105.374C274.354 102.957 276.45 101.168 278.883 101.26Z" fill="#16191C"/>
<path d="M340.679 168.904C348.845 147.822 372.171 126.966 404.393 131.118C438.006 139.712 449.118 165.162 444.515 192.03C440.833 213.525 424.006 219.847 416.053 220.321C419.903 226.815 424.664 244.62 411.737 247.897C401.395 250.519 397.449 232.378 396.768 222.98C396.592 233.617 388.123 250.929 378.774 245.94C371.295 241.949 373.539 230.319 375.596 225.003C372.492 231.086 363.417 242.408 351.949 239.026C340.482 235.645 352.62 218.878 360.123 210.918C344.383 216.302 332.513 189.986 340.679 168.904Z" fill="#FA3556"/>
<path d="M360.381 176.508C372.787 173.064 380.075 189.878 378.213 197.244C376.852 202.464 365.92 200.876 360.203 194.617C354.764 188.663 354.332 178.187 360.381 176.508Z" fill="#16191C"/>
<path d="M383.459 211.383C380.183 209.325 385.496 201.078 389.314 201.144C393.14 201.744 395.032 210.884 391.977 212.096C389.66 213.016 386.087 213.035 383.459 211.383Z" fill="#16191C"/>
<path d="M425.939 182.673C415.307 176.275 402.423 190.5 401.604 198C401.064 203.325 412.06 204.551 419.725 200.008C427.017 195.687 431.122 185.793 425.939 182.673Z" fill="#16191C"/>
<path d="M569.316 108.056C569.46 106.808 568.967 105.572 568.004 104.766L562.836 100.441C561.134 99.0175 559.064 98.1044 556.865 97.8077C559.328 97.8077 561.653 100.312 561.34 103.022L537.911 305.463L543.78 302.113C545.848 300.932 547.232 298.838 547.506 296.471L569.316 108.056Z" fill="#16191C"/>
<path d="M241.966 269.737L247.45 221.728M241.966 269.737L528.534 304.33M241.966 269.737L139.827 297.411" stroke="#16191C" stroke-width="1.87187" stroke-linecap="round"/>
<path d="M188.613 310.617L159.152 304.333L186.786 296.561L211.713 289.55L227.995 284.971L244.277 280.392L268.289 283.575L293.795 286.957L322.235 290.733L355.48 295.185L385.917 299.529L413.486 302.827L443.908 306.934L482.171 311.934L456.794 322.027L431.417 332.12L407.091 341.795L381.845 351.836L355.887 346.299L330.842 340.956L216.907 316.653L188.613 310.617Z" fill="#FA3556"/>
<path d="M188.617 310.618L268.293 283.576M216.911 316.653L293.799 286.957M186.79 296.561L269.989 313.644M407.095 341.795L329.026 325.766M211.717 289.551L431.421 332.12M227.999 284.971L456.798 322.027M413.49 302.827L330.846 340.957M355.892 346.299L443.912 306.934M329.026 325.766L300.643 319.938L299.825 319.77M329.026 325.766L385.921 299.529M269.989 313.644L299.825 319.77M269.989 313.644L322.239 290.734M355.485 295.186L299.825 319.77" stroke="#16191C" stroke-width="1.87187" stroke-linecap="round"/>
<path d="M107.441 307.226L382.659 367.651L537.91 305.462L534.015 317.146C533.408 318.967 532.032 320.431 530.251 321.149L381.932 380.99C380.683 381.494 379.309 381.601 377.997 381.296L119 321.059C117.404 320.687 116.005 319.731 115.079 318.379L107.441 307.226Z" fill="#16191C"/>
<path d="M162.224 332.071L225.939 347.007M513.34 328.992L437.013 359.523" stroke="#F9F9F9" stroke-width="1.87187" stroke-linecap="round"/>
<path d="M547.517 450.999L505.848 414.411C498.734 403.909 480.338 384.328 463.67 390.02C442.835 397.134 422.001 397.134 402.182 390.02C382.364 382.905 346.284 353.94 325.958 354.448C305.631 354.956 302.582 373.758 311.729 382.905C320.876 392.052 331.039 403.232 363.054 438.803C388.665 467.261 435.382 503.848 455.54 518.585C502.291 512.081 536.338 470.818 547.517 450.999Z" fill="#F9F9F9"/>
<path d="M547.521 450.998L505.852 414.41C487.771 443.611 491.702 485.482 455.544 518.584C502.295 512.08 536.342 470.817 547.521 450.998Z" fill="#16191C"/>
<path d="M325.958 354.448C339.062 354.12 360.408 365.649 378.028 376.069M463.671 390.02C444.229 396.658 426.444 396.317 407.827 390.566M329.956 361.287C337.158 364.927 348.414 373.664 348.414 378.912C348.414 382.599 338.344 391.284 332.47 395.479" stroke="#16191C" stroke-width="1.87187" stroke-linecap="round"/>
<path d="M59.9942 369.499L116.737 363.025C126.856 350.158 148.058 342.056 166.347 337.259C177.965 334.636 178.34 336.884 177.59 348.127C176.841 359.37 177.965 377.173 194.455 371.926C210.945 366.679 234.93 339.696 257.791 336.323C280.652 332.95 284.774 352.622 276.904 360.867C269.034 369.112 231.557 416.335 210.945 434.324C194.455 448.715 128.218 477.521 99.3544 482.332C57.9799 463.143 52.1222 401.862 59.9942 369.499Z" fill="#F9F9F9"/>
<path d="M220.775 351.934C225.791 348.242 239.628 339.895 254.847 336.033C266.366 333.11 273.732 336.835 277.536 340.706" stroke="#16191C" stroke-width="1.87187" stroke-linecap="round"/>
<path d="M116.737 363.025L59.9942 369.5C52.1222 401.862 57.9799 463.144 99.3544 482.332C80.5542 430.475 107.821 404.524 116.737 363.025Z" fill="#16191C"/>
<path d="M259.237 342.961C250.898 345.35 236.626 355.188 239.425 360.087C242.224 364.985 249.648 373.288 253.73 376.058" stroke="#16191C" stroke-width="1.87187" stroke-linecap="round"/>
</svg>
